<svg width="55" height="50" viewBox="0 0 55 50" fill="none" xmlns="http://www.w3.org/2000/svg">
<g id="quote" opacity="0.3">
<path id="&#226;&#128;&#156;" d="M9.26174 50C4.47651 50 1.09037e-06 46.4514 1.09037e-06 41.1284C1.09037e-06 36.5447 3.55033 32.4047 9.10738 32.4047C12.0403 32.4047 15.4362 31.0739 15.4362 27.9689C15.4362 23.8288 9.57047 17.1751 1.2349 13.7743L2.00671 12C11.7315 16.1401 20.0671 23.9767 20.0671 37.1362C20.0671 43.0506 17.7517 50 9.26174 50ZM35.1946 50C30.4094 50 25.9329 46.4514 25.9329 41.1284C25.9329 36.5447 29.4832 32.4047 35.0403 32.4047C37.9732 32.4047 41.3691 31.0739 41.3691 27.9689C41.3691 23.8288 35.5034 17.1751 27.1678 13.7743L27.9396 12C37.6644 16.1401 46 23.9767 46 37.1362C46 43.0506 43.6846 50 35.1946 50Z" fill="#8B1026"/>
</g>
</svg>
