<svg width="47" height="39" viewBox="0 0 47 39" fill="none" xmlns="http://www.w3.org/2000/svg">
<g id="quote" opacity="0.3">
<path id="&#226;&#128;&#156;" d="M37.5369 39C42.4262 39 47 35.358 47 29.8949C47 25.1907 43.3725 20.9416 37.6946 20.9416C34.698 20.9416 31.2282 19.5759 31.2282 16.3891C31.2282 12.1401 37.2215 5.31129 45.7383 1.82101L44.9497 0C35.0134 4.24903 26.4966 12.2918 26.4966 25.7977C26.4966 31.8677 28.8624 39 37.5369 39ZM11.0403 39C15.9295 39 20.5034 35.358 20.5034 29.8949C20.5034 25.1907 16.8758 20.9416 11.198 20.9416C8.20134 20.9416 4.73154 19.5759 4.73154 16.3891C4.73154 12.1401 10.7248 5.31129 19.2416 1.82101L18.453 0C8.51678 4.24903 0 12.2918 0 25.7977C0 31.8677 2.36577 39 11.0403 39Z" fill="#8B1026"/>
</g>
</svg>
