<svg width="130" height="40" viewBox="0 0 130 40" fill="none" xmlns="http://www.w3.org/2000/svg">
<rect width="130" height="40" rx="6" fill="white"/>
<path fill-rule="evenodd" clip-rule="evenodd" d="M42.5806 18.1027C44.3103 18.1027 45.3965 16.866 45.3965 15.3202C45.3965 13.791 44.3103 12.5293 42.5806 12.5293H40.8008V18.1027H42.5806ZM42.5789 17.6692H41.2754V12.9648H42.5789C44.0579 12.9648 44.8935 14.0177 44.8935 15.3212C44.8935 16.6247 44.0495 17.6692 42.5789 17.6692ZM49.0805 18.2031C50.7099 18.2031 51.7878 16.9497 51.7878 15.3203C51.7878 13.6909 50.7099 12.4375 49.0805 12.4375C47.4427 12.4375 46.3731 13.6909 46.3731 15.3203C46.3731 16.9497 47.4427 18.2031 49.0805 18.2031ZM49.081 17.7677C47.7357 17.7677 46.875 16.7232 46.875 15.3194C46.875 13.9072 47.7357 12.8711 49.081 12.8711C50.4179 12.8711 51.2869 13.9072 51.2869 15.3194C51.2869 16.7232 50.4179 17.7677 49.081 17.7677ZM57.7691 18.1027L59.3567 12.5293H58.822L57.4767 17.4342L56.1146 12.5293H55.6801L54.3098 17.4342L52.9645 12.5293H52.4297L54.0257 18.1027H54.5604L55.8974 13.3148L57.2343 18.1027H57.7691ZM64.6646 18.1027V12.5293H64.1883V17.2504L60.6956 12.5293H60.2109V18.1027H60.6872V13.3148L64.1967 18.1027H64.6646ZM69.1172 18.1027V17.6682H66.4182V12.5293H65.9336V18.1027H69.1172ZM72.5921 18.2031C74.2215 18.2031 75.2994 16.9497 75.2994 15.3203C75.2994 13.6909 74.2215 12.4375 72.5921 12.4375C70.9543 12.4375 69.8848 13.6909 69.8848 15.3203C69.8848 16.9497 70.9543 18.2031 72.5921 18.2031ZM72.5927 17.7677C71.2474 17.7677 70.3867 16.7232 70.3867 15.3194C70.3867 13.9072 71.2474 12.8711 72.5927 12.8711C73.9296 12.8711 74.7986 13.9072 74.7986 15.3194C74.7986 16.7232 73.9296 17.7677 72.5927 17.7677ZM81.0657 18.1027L78.7846 12.5293H78.1913L75.9102 18.1027H76.4616L77.0131 16.7323H79.9628L80.5143 18.1027H81.0657ZM79.804 16.2979H77.1719L78.4921 13.0391L79.804 16.2979ZM83.6645 18.1026C85.3942 18.1026 86.4804 16.866 86.4804 15.3201C86.4804 13.791 85.3942 12.5293 83.6645 12.5293H81.8847V18.1026H83.6645ZM83.6648 17.6692H82.3613V12.9648H83.6648C85.1438 12.9648 85.9794 14.0177 85.9794 15.3212C85.9794 16.6247 85.1355 17.6692 83.6648 17.6692ZM90.3083 18.1027V15.4622H93.3081V15.0277H90.3083V12.9638H93.3666V12.5293H89.832V18.1027H90.3083ZM98.2051 18.1026L96.5924 15.763C97.428 15.7296 98.1383 15.1697 98.1383 14.1587C98.1383 13.1392 97.403 12.5293 96.442 12.5293H94.3614V18.1026H94.8377V15.7964H96.066L97.6286 18.1026H98.2051ZM96.4004 15.363H94.8379V12.9648H96.4004C97.1441 12.9648 97.6371 13.4578 97.6371 14.1597C97.6371 14.8616 97.1441 15.363 96.4004 15.363ZM101.823 18.2031C103.452 18.2031 104.53 16.9497 104.53 15.3203C104.53 13.6909 103.452 12.4375 101.823 12.4375C100.185 12.4375 99.1152 13.6909 99.1152 15.3203C99.1152 16.9497 100.185 18.2031 101.823 18.2031ZM101.823 17.7677C100.478 17.7677 99.6172 16.7232 99.6172 15.3194C99.6172 13.9072 100.478 12.8711 101.823 12.8711C103.16 12.8711 104.029 13.9072 104.029 15.3194C104.029 16.7232 103.16 17.7677 101.823 17.7677ZM110.923 18.1027V12.5293H110.204L108.316 17.1668L106.419 12.5293H105.709V18.1027H106.185V13.1309L108.224 18.1027H108.408L110.438 13.1309V18.1027H110.923ZM45.8545 28.0265L43.7071 22.4531H42.2197L40.0723 28.0265H41.4176L41.7685 27.0823H44.1583L44.5092 28.0265H45.8545ZM43.8337 26.0368H42.0957L42.9647 23.6387L43.8337 26.0368ZM47.5596 28.0265V26.0378H48.9801C50.1833 26.0378 50.8518 25.2189 50.8518 24.2496C50.8518 23.272 50.1917 22.4531 48.9801 22.4531H46.373V28.0265H47.5596ZM48.812 24.9918H47.5586V23.4961H48.812C49.2799 23.4961 49.6392 23.7802 49.6392 24.2481C49.6392 24.7077 49.2799 24.9918 48.812 24.9918ZM52.7822 28.0265V26.0378H54.2027C55.406 26.0378 56.0745 25.2189 56.0745 24.2496C56.0745 23.272 55.4143 22.4531 54.2027 22.4531H51.5957V28.0265H52.7822ZM54.0346 24.9918H52.7812V23.4961H54.0346C54.5026 23.4961 54.8619 23.7802 54.8619 24.2481C54.8619 24.7077 54.5026 24.9918 54.0346 24.9918ZM60.3169 28.0265V26.982H57.9605V22.4531H56.7656V28.0265H60.3169ZM65.0651 28.0265V26.982H62.3076V25.7119H65.0066V24.6674H62.3076V23.4976H65.0651V22.4531H61.1211V28.0265H65.0651ZM73.337 28.0265L71.1895 22.4531H69.7022L67.5547 28.0265H68.9L69.2509 27.0823H71.6407L71.9917 28.0265H73.337ZM71.3143 26.0369H69.5763L70.4453 23.6387L71.3143 26.0369ZM75.042 28.0265V26.0378H76.4625C77.6658 26.0378 78.3342 25.2189 78.3342 24.2496C78.3342 23.272 77.6741 22.4531 76.4625 22.4531H73.8555V28.0265H75.042ZM76.2964 24.9918H75.043V23.4961H76.2964C76.7643 23.4961 77.1236 23.7802 77.1236 24.2481C77.1236 24.7077 76.7643 24.9918 76.2964 24.9918ZM80.2647 28.0265V26.0378H81.6852C82.8884 26.0378 83.5569 25.2189 83.5569 24.2496C83.5569 23.272 82.8968 22.4531 81.6852 22.4531H79.0781V28.0265H80.2647ZM81.5171 24.9918H80.2637V23.4961H81.5171C81.985 23.4961 82.3443 23.7802 82.3443 24.2481C82.3443 24.7077 81.985 24.9918 81.5171 24.9918ZM88.4356 28.1244C89.9313 28.1244 90.6666 27.3557 90.6666 26.3362C90.6666 24.2556 87.4663 24.8489 87.4663 23.9715C87.4663 23.6373 87.7504 23.42 88.2517 23.42C88.8199 23.42 89.4216 23.6122 89.8728 24.03L90.5329 23.1443C89.9814 22.6346 89.2461 22.3672 88.3604 22.3672C87.0485 22.3672 86.2463 23.1359 86.2463 24.0634C86.2463 26.1608 89.455 25.4839 89.455 26.4532C89.455 26.7791 89.1458 27.0716 88.4857 27.0716C87.717 27.0716 87.107 26.7206 86.7143 26.3112L86.0625 27.2387C86.5889 27.7651 87.3577 28.1244 88.4356 28.1244ZM93.9434 28.0265V23.4976H95.5645V22.4531H91.1191V23.4976H92.7485V28.0265H93.9434ZM98.9729 28.1249C100.652 28.1249 101.881 26.9217 101.881 25.2422C101.881 23.5626 100.652 22.3594 98.9729 22.3594C97.285 22.3594 96.0566 23.5626 96.0566 25.2422C96.0566 26.9217 97.285 28.1249 98.9729 28.1249ZM98.9736 27.0739C97.9375 27.0739 97.2773 26.2801 97.2773 25.244C97.2773 24.1995 97.9375 23.4141 98.9736 23.4141C100.001 23.4141 100.661 24.1995 100.661 25.244C100.661 26.2801 100.001 27.0739 98.9736 27.0739ZM107.237 28.0265L105.976 25.9041C106.577 25.7621 107.204 25.2273 107.204 24.2496C107.204 23.2135 106.485 22.4531 105.324 22.4531H102.717V28.0265H103.903V26.0462H104.772L105.867 28.0265H107.237ZM105.156 25.0002H103.902V23.4961H105.156C105.624 23.4961 105.983 23.7802 105.983 24.2398C105.983 24.7161 105.624 25.0002 105.156 25.0002ZM112.034 28.0265V26.982H109.276V25.7119H111.975V24.6674H109.276V23.4976H112.034V22.4531H108.09V28.0265H112.034Z" fill="#8B1026"/>
<path fill-rule="evenodd" clip-rule="evenodd" d="M27.5207 11.9141C27.6744 12.9458 27.2504 13.9548 26.6923 14.6695C26.0946 15.4353 25.0645 16.0286 24.0692 15.9979C23.8874 15.0107 24.3542 13.9949 24.9194 13.3102C25.542 12.5558 26.6087 11.977 27.5207 11.9141ZM30.5171 26.4239C31.0318 25.6432 31.2231 25.249 31.6228 24.3651C28.7198 23.2709 28.2531 19.1788 31.1262 17.6081C30.2493 16.5178 29.0187 15.8867 27.8573 15.8867C27.0191 15.8867 26.4449 16.1034 25.923 16.3003C25.4882 16.4644 25.0898 16.6147 24.6054 16.6147C24.0822 16.6147 23.6187 16.4499 23.1332 16.2773C22.5991 16.0873 22.0383 15.8879 21.342 15.8879C20.0367 15.8879 18.6488 16.6788 17.7687 18.0305C16.5305 19.9325 16.7402 23.5102 18.7481 26.5586C19.4661 27.6486 20.4251 28.8745 21.679 28.8858C22.1984 28.8906 22.5443 28.7368 22.9186 28.5704C23.3475 28.3798 23.8138 28.1726 24.6211 28.168C25.4333 28.1635 25.8917 28.3731 26.3148 28.5666C26.6795 28.7333 27.0179 28.8881 27.5339 28.8834C28.7875 28.8714 29.7994 27.5142 30.5171 26.4239Z" fill="#8B1026"/>
</svg>
