<svg width="130" height="40" viewBox="0 0 130 40" fill="none" xmlns="http://www.w3.org/2000/svg">
<rect width="130" height="40" rx="6" fill="white"/>
<path fill-rule="evenodd" clip-rule="evenodd" d="M36.5259 17.9367C38.2556 17.9367 39.3418 16.7 39.3418 15.1542C39.3418 13.625 38.2556 12.3633 36.5259 12.3633H34.7461V17.9367H36.5259ZM36.5262 17.5012H35.2227V12.7969H36.5262C38.0052 12.7969 38.8408 13.8497 38.8408 15.1532C38.8408 16.4568 37.9968 17.5012 36.5262 17.5012ZM43.0276 18.0371C44.657 18.0371 45.7349 16.7837 45.7349 15.1543C45.7349 13.5249 44.657 12.2715 43.0276 12.2715C41.3899 12.2715 40.3203 13.5249 40.3203 15.1543C40.3203 16.7837 41.3899 18.0371 43.0276 18.0371ZM43.0263 17.6036C41.681 17.6036 40.8203 16.5591 40.8203 15.1553C40.8203 13.7432 41.681 12.707 43.0263 12.707C44.3632 12.707 45.2322 13.7432 45.2322 15.1553C45.2322 16.5591 44.3632 17.6036 43.0263 17.6036ZM51.7164 17.9367L53.304 12.3633H52.7692L51.4239 17.2682L50.0619 12.3633H49.6274L48.257 17.2682L46.9117 12.3633H46.377L47.9729 17.9367H48.5077L49.8447 13.1487L51.1816 17.9367H51.7164ZM58.6099 17.9367V12.3633H58.1337V17.0844L54.6409 12.3633H54.1562V17.9367H54.6325V13.1487L58.142 17.9367H58.6099ZM63.0644 17.9366V17.5021H60.3655V12.3632H59.8809V17.9366H63.0644ZM66.5393 18.0371C68.1687 18.0371 69.2467 16.7837 69.2467 15.1543C69.2467 13.5249 68.1687 12.2715 66.5393 12.2715C64.9016 12.2715 63.832 13.5249 63.832 15.1543C63.832 16.7837 64.9016 18.0371 66.5393 18.0371ZM66.5399 17.6036C65.1946 17.6036 64.334 16.5591 64.334 15.1553C64.334 13.7432 65.1946 12.707 66.5399 12.707C67.8769 12.707 68.7459 13.7432 68.7459 15.1553C68.7459 16.5591 67.8769 17.6036 66.5399 17.6036ZM75.013 17.9367L72.7318 12.3633H72.1386L69.8574 17.9367H70.4089L70.9604 16.5663H73.91L74.4615 17.9367H75.013ZM73.7512 16.1318H71.1191L72.4394 12.873L73.7512 16.1318ZM77.6099 17.9367C79.3396 17.9367 80.4258 16.7 80.4258 15.1542C80.4258 13.625 79.3396 12.3633 77.6099 12.3633H75.8301V17.9367H77.6099ZM77.6102 17.5012H76.3066V12.7969H77.6102C79.0892 12.7969 79.9247 13.8497 79.9247 15.1532C79.9247 16.4568 79.0808 17.5012 77.6102 17.5012ZM84.2536 17.9367V15.2962H87.2534V14.8617H84.2536V12.7978H87.3119V12.3633H83.7773V17.9367H84.2536ZM92.1523 17.9367L90.5396 15.597C91.3752 15.5636 92.0855 15.0037 92.0855 13.9927C92.0855 12.9733 91.3501 12.3633 90.3892 12.3633H88.3086V17.9367H88.7849V15.6304H90.0132L91.5757 17.9367H92.1523ZM90.3458 15.195H88.7832V12.7969H90.3458C91.0894 12.7969 91.5824 13.2899 91.5824 13.9918C91.5824 14.6937 91.0894 15.195 90.3458 15.195ZM95.7679 18.0371C97.3973 18.0371 98.4752 16.7837 98.4752 15.1543C98.4752 13.5249 97.3973 12.2715 95.7679 12.2715C94.1301 12.2715 93.0605 13.5249 93.0605 15.1543C93.0605 16.7837 94.1301 18.0371 95.7679 18.0371ZM95.7704 17.6036C94.4251 17.6036 93.5645 16.5591 93.5645 15.1553C93.5645 13.7432 94.4251 12.707 95.7704 12.707C97.1074 12.707 97.9764 13.7432 97.9764 15.1553C97.9764 16.5591 97.1074 17.6036 95.7704 17.6036ZM104.868 17.9367V12.3633H104.15L102.261 17.0008L100.365 12.3633H99.6543V17.9367H100.131V12.9649L102.169 17.9367H102.353L104.384 12.9649V17.9367H104.868ZM37.3106 27.9589C38.3133 27.9589 39.1072 27.5495 39.6754 26.9144V24.7753H37.0182V25.8115H38.4888V26.4799C38.2632 26.6888 37.8036 26.9061 37.3106 26.9061C36.2912 26.9061 35.5559 26.129 35.5559 25.0761C35.5559 24.0233 36.2912 23.2462 37.3106 23.2462C37.8956 23.2462 38.3718 23.5804 38.6309 23.9732L39.6085 23.4384C39.1907 22.7783 38.4638 22.1934 37.3106 22.1934C35.6729 22.1934 34.3359 23.3131 34.3359 25.0761C34.3359 26.8309 35.6729 27.9589 37.3106 27.9589ZM43.2697 27.9589C44.9493 27.9589 46.1776 26.7557 46.1776 25.0761C46.1776 23.3966 44.9493 22.1934 43.2697 22.1934C41.5818 22.1934 40.3535 23.3966 40.3535 25.0761C40.3535 26.7557 41.5818 27.9589 43.2697 27.9589ZM43.2685 26.906C42.2324 26.906 41.5723 26.1122 41.5723 25.076C41.5723 24.0315 42.2324 23.2461 43.2685 23.2461C44.2963 23.2461 44.9564 24.0315 44.9564 25.076C44.9564 26.1122 44.2963 26.906 43.2685 26.906ZM49.6603 27.9589C51.3399 27.9589 52.5682 26.7557 52.5682 25.0761C52.5682 23.3966 51.3399 22.1934 49.6603 22.1934C47.9725 22.1934 46.7441 23.3966 46.7441 25.0761C46.7441 26.7557 47.9725 27.9589 49.6603 27.9589ZM49.6611 26.906C48.625 26.906 47.9648 26.1122 47.9648 25.076C47.9648 24.0315 48.625 23.2461 49.6611 23.2461C50.6889 23.2461 51.349 24.0315 51.349 25.076C51.349 26.1122 50.6889 26.906 49.6611 26.906ZM56.1114 27.9589C57.1141 27.9589 57.9079 27.5495 58.4761 26.9144V24.7753H55.819V25.8115H57.2896V26.4799C57.064 26.6888 56.6044 26.9061 56.1114 26.9061C55.092 26.9061 54.3567 26.129 54.3567 25.0761C54.3567 24.0233 55.092 23.2462 56.1114 23.2462C56.6963 23.2462 57.1726 23.5804 57.4317 23.9732L58.4093 23.4384C57.9915 22.7783 57.2645 22.1934 56.1114 22.1934C54.4737 22.1934 53.1367 23.3131 53.1367 25.0761C53.1367 26.8309 54.4737 27.9589 56.1114 27.9589ZM62.9204 27.8585V26.8141H60.564V22.2852H59.3691V27.8585H62.9204ZM67.6666 27.8585V26.8141H64.9092V25.544H67.6082V24.4995H64.9092V23.3296H67.6666V22.2852H63.7227V27.8585H67.6666ZM71.9287 27.8585V25.8698H73.3492C74.5525 25.8698 75.221 25.051 75.221 24.0817C75.221 23.104 74.5608 22.2852 73.3492 22.2852H70.7422V27.8585H71.9287ZM73.1831 24.8258H71.9297V23.3301H73.1831C73.651 23.3301 74.0103 23.6142 74.0103 24.0821C74.0103 24.5417 73.651 24.8258 73.1831 24.8258ZM79.4653 27.8585V26.8141H77.109V22.2852H75.9141V27.8585H79.4653ZM85.4659 27.8585L83.3184 22.2852H81.8311L79.6836 27.8585H81.0289L81.3798 26.9143H83.7696L84.1206 27.8585H85.4659ZM83.4431 25.8708H81.7051L82.5741 23.4727L83.4431 25.8708ZM88.7241 27.8605V25.5793L90.8548 22.2871H89.5095L88.1308 24.5181L86.7521 22.2871H85.3984L87.5375 25.5793V27.8605H88.7241ZM95.5098 27.9603C97.0055 27.9603 97.7408 27.1916 97.7408 26.1722C97.7408 24.0916 94.5405 24.6848 94.5405 23.8075C94.5405 23.4732 94.8246 23.256 95.326 23.256C95.8942 23.256 96.4958 23.4482 96.947 23.8659L97.6071 22.9802C97.0556 22.4705 96.3203 22.2031 95.4346 22.2031C94.1227 22.2031 93.3205 22.9719 93.3205 23.8994C93.3205 25.9967 96.5292 25.3199 96.5292 26.2892C96.5292 26.615 96.22 26.9075 95.5599 26.9075C94.7912 26.9075 94.1812 26.5565 93.7885 26.1471L93.1367 27.0746C93.6631 27.601 94.4319 27.9603 95.5098 27.9603ZM101.016 27.8585V23.3296H102.637V22.2852H98.1914V23.3296H99.8208V27.8585H101.016ZM106.045 27.9589C107.725 27.9589 108.953 26.7557 108.953 25.0761C108.953 23.3966 107.725 22.1934 106.045 22.1934C104.357 22.1934 103.129 23.3966 103.129 25.0761C103.129 26.7557 104.357 27.9589 106.045 27.9589ZM106.048 26.906C105.012 26.906 104.352 26.1122 104.352 25.076C104.352 24.0315 105.012 23.2461 106.048 23.2461C107.076 23.2461 107.736 24.0315 107.736 25.076C107.736 26.1122 107.076 26.906 106.048 26.906ZM114.31 27.8585L113.048 25.7361C113.649 25.5941 114.276 25.0593 114.276 24.0817C114.276 23.0455 113.558 22.2852 112.396 22.2852H109.789V27.8585H110.976V25.8782H111.845L112.939 27.8585H114.31ZM112.23 24.8341H110.977V23.3301H112.23C112.698 23.3301 113.057 23.6142 113.057 24.0738C113.057 24.55 112.698 24.8341 112.23 24.8341ZM119.106 27.8605V26.816H116.349V25.5459H119.048V24.5014H116.349V23.3316H119.106V22.2871H115.162V27.8605H119.106Z" fill="#8B1026"/>
<path fill-rule="evenodd" clip-rule="evenodd" d="M22.7629 17.7603L12.3143 12.076C12.018 11.9156 11.7448 11.8783 11.5234 11.9466L20.0818 20.4135L22.7629 17.7603Z" fill="#8B1026"/>
<path fill-rule="evenodd" clip-rule="evenodd" d="M22.7768 23.0773L26.3438 21.1368C27.067 20.7419 27.067 20.0995 26.3438 19.7055L22.7636 17.7578L20.082 20.411L22.7768 23.0773Z" fill="#8B1026"/>
<path fill-rule="evenodd" clip-rule="evenodd" d="M11.5235 11.9453C11.2057 12.0437 11 12.362 11 12.8436L11.002 28.001C11.002 28.4773 11.2013 28.7908 11.5098 28.8954L20.0824 20.4136L11.5235 11.9453Z" fill="#8B1026"/>
<path fill-rule="evenodd" clip-rule="evenodd" d="M11.5098 28.8959C11.7326 28.9705 12.0112 28.9356 12.3148 28.7709L22.7757 23.0789L20.0824 20.4141L11.5098 28.8959Z" fill="#8B1026"/>
</svg>
