<svg width="24" height="24" viewBox="0 0 24 24" fill="none" xmlns="http://www.w3.org/2000/svg">
<path fill-rule="evenodd" clip-rule="evenodd" d="M4.51134 4.51128C5.01176 4.01088 5.51362 3.70272 6.10548 3.47304C6.67791 3.25056 7.33169 3.09864 8.29005 3.05472C9.24985 3.01008 9.55586 3 12.0011 3C14.4456 3 14.7523 3.0108 15.7114 3.05472C16.669 3.09792 17.3228 3.25056 17.896 3.47304C18.4871 3.70272 18.989 4.01088 19.4894 4.51128C19.9898 5.01168 20.2973 5.51352 20.5277 6.10536C20.7501 6.67776 20.9021 7.33152 20.946 8.28984C20.9899 9.24888 21 9.55632 21 12C21 14.4437 20.9899 14.7497 20.946 15.7102C20.9028 16.6685 20.7501 17.3222 20.5277 17.8946C20.2973 18.4865 19.9898 18.9883 19.4894 19.4887C18.989 19.9891 18.4871 20.2966 17.8952 20.527C17.3228 20.7494 16.669 20.9014 15.7107 20.9453C14.7516 20.9899 14.4456 21 12.0004 21C9.55658 21 9.25057 20.9892 8.29005 20.9453C7.33169 20.9014 6.67863 20.7494 6.10548 20.527C5.5129 20.2966 5.01176 19.9891 4.51134 19.4887C4.0102 18.989 3.70275 18.4865 3.47306 17.8946C3.25057 17.3222 3.09864 16.6685 3.05472 15.7102C3.01008 14.7511 3 14.4444 3 12C3 9.5556 3.01008 9.24888 3.054 8.28912C3.09792 7.3308 3.24985 6.67704 3.47234 6.10464C3.70203 5.51208 4.0102 5.01096 4.51134 4.51128ZM8.36504 19.3249C7.48732 19.2846 7.01066 19.1392 6.69385 19.0153C6.27335 18.8519 5.97382 18.6568 5.65845 18.3421C5.3438 18.0275 5.14795 17.728 4.98522 17.3075C4.86138 16.9907 4.71521 16.5133 4.67561 15.6364C4.63169 14.6874 4.62305 14.403 4.62305 11.9997C4.62305 9.59629 4.63241 9.31189 4.67561 8.36293C4.71593 7.48525 4.8621 7.00933 4.98522 6.69181C5.14867 6.27133 5.3438 5.97181 5.65845 5.65645C5.9731 5.34181 6.27263 5.14597 6.69385 4.98325C7.01066 4.85941 7.48804 4.71325 8.36504 4.67365C9.31403 4.62973 9.59845 4.62109 12.0012 4.62109C14.4046 4.62109 14.689 4.63045 15.638 4.67365C16.5158 4.71397 16.9917 4.86013 17.3092 4.98325C17.7297 5.14597 18.0293 5.34181 18.3446 5.65645C18.6593 5.97109 18.8544 6.27133 19.0179 6.69181C19.1417 7.00861 19.2879 7.48597 19.3275 8.36293C19.3714 9.31261 19.38 9.59629 19.38 11.9997C19.38 14.4023 19.3714 14.6874 19.3275 15.6364C19.2872 16.5141 19.141 16.9907 19.0179 17.3075C18.8544 17.728 18.6593 18.0275 18.3446 18.3421C18.03 18.6568 17.7297 18.8519 17.3092 19.0153C16.9924 19.1392 16.515 19.2853 15.638 19.3249C14.689 19.3689 14.4046 19.3775 12.0012 19.3775C9.59845 19.3768 9.31331 19.3681 8.36504 19.3249ZM16.8047 8.27647C16.2077 8.27647 15.7246 7.79263 15.7246 7.19647C15.7246 6.60031 16.2077 6.11719 16.8047 6.11719C17.4016 6.11719 17.8847 6.60031 17.8847 7.19647C17.8847 7.79263 17.4008 8.27647 16.8047 8.27647ZM7.37695 12.0006C7.37695 14.553 9.44632 16.6223 11.9988 16.6223C14.5513 16.6223 16.6207 14.553 16.6207 12.0006C16.6207 9.44819 14.5513 7.37891 11.9988 7.37891C9.44632 7.37891 7.37695 9.44819 7.37695 12.0006ZM9 12.0002C9 10.3435 10.3429 9 11.9996 9C13.6564 9 15 10.3435 15 12.0002C15 13.657 13.6564 15.0005 11.9996 15.0005C10.3429 15.0005 9 13.657 9 12.0002Z" fill="white"/>
</svg>
