<svg width="24" height="24" viewBox="0 0 24 24" fill="none" xmlns="http://www.w3.org/2000/svg">
<path fill-rule="evenodd" clip-rule="evenodd" d="M20.9926 6.04222C21.5939 6.64889 21.7891 8.01778 21.7891 8.01778C21.7891 8.01778 21.9922 9.63556 22 11.2456V12.7544C22 14.3644 21.797 15.9744 21.797 15.9744C21.797 15.9744 21.6017 17.3433 21.0004 17.95C20.313 18.6626 19.5562 18.7351 19.1263 18.7763C19.0776 18.781 19.0331 18.7853 18.9934 18.79C16.1976 18.9922 11.9961 19 11.9961 19C11.9961 19 6.80281 18.9533 5.20187 18.7978C5.12927 18.7851 5.04192 18.7751 4.94327 18.7638C4.4371 18.7059 3.63357 18.6139 2.99961 17.95C2.39828 17.3433 2.20305 15.9744 2.20305 15.9744C2.20305 15.9744 2 14.3644 2 12.7544V11.2456C2 9.63556 2.20305 8.01778 2.20305 8.01778C2.20305 8.01778 2.39828 6.64889 2.9918 6.04222C3.67923 5.32963 4.43597 5.25711 4.86586 5.21591C4.91457 5.21124 4.95909 5.20697 4.99883 5.20222C7.80242 5 11.9961 5 11.9961 5H12.0039C12.0039 5 16.1976 5 18.9856 5.20222C19.0255 5.20691 19.0701 5.21112 19.1186 5.21572C19.5538 5.25688 20.3111 5.32853 20.9926 6.04222ZM10 9V15L15 12.0125L10 9Z" fill="white"/>
</svg>
